# xmcd CD database file
#
# Track frame offsets:
#	150
#	3404
#	9305
#	15591
#	22420
#	30402
#	40915
#	52068
#	62399
#	72709
#	81691
#	91609
#	101356
#	110308
#	121977
#	129570
#	138082
#	146234
#	153945
#	162897
#	168857
#	175146
#	181977
#	189998
#	200546
#	211743
#	222100
#	232400
#	241393
#	251353
#	261078
#	270044
#	281708
#	289310
#	297836
#	305986
#	313695
#
# Disc length: 4301 seconds
#
# Revision: 0
# Processed by: cddbd v1.5.2PL0 Copyright (c) Steve Scherf et al.
# Submitted via: CDex 1.70beta2
#
DISCID=1410cb25
DTITLE=Mike Carubia_Jeff Jarvis - Effective Etudes For Jazz
DYEAR=2004
DGENRE=Jazz
TTITLE0=Tuning Note
TTITLE1=Keep Smilin' with Soloist (wS)
TTITLE2=Moonmen wS
TTITLE3=Minor Is Finer wS
TTITLE4=Baggage Claim Blues wS
TTITLE5=Dido wS
TTITLE6=Isle Of Melon wS
TTITLE7=It's From Heaven wS
TTITLE8=The Moon Is High wS
TTITLE9=Blue Note Blues wS
TTITLE10=Softly ws
TTITLE11=You're The Last One wS
TTITLE12=I Got Yer Rhythm wS
TTITLE13=The Sum Of Your Attributes wS
TTITLE14=This Is Love wS
TTITLE15=My Glowing Moment wS
TTITLE16=Sweet Georgia wS
TTITLE17=It's Nobody For Me wS
TTITLE18=I Got Rid Of 'Em wS
TTITLE19=Keep Smilin' 
TTITLE20=Moonmen
TTITLE21=Minor Is Finer 
TTITLE22=Baggage Claim Blues 
TTITLE23=Dido
TTITLE24=Isle Of Melon
TTITLE25=It's From Heaven 
TTITLE26=The Moon Is High
TTITLE27=Blue Note Blues
TTITLE28=Softly 
TTITLE29=You're The Last One
TTITLE30=I Got Yer Rhythm 
TTITLE31=The Sum Of Your Attributes
TTITLE32=This Is Love 
TTITLE33=My Glowing Moment 
TTITLE34=Sweet Georgia 
TTITLE35=It's Nobody For Me 
TTITLE36=I Got Rid Of 'Em
EXTD=YEAR: 2004
EXTT0=
EXTT1=
EXTT2=
EXTT3=
EXTT4=
EXTT5=
EXTT6=
EXTT7=
EXTT8=
EXTT9=
EXTT10=
EXTT11=
EXTT12=
EXTT13=
EXTT14=
EXTT15=
EXTT16=
EXTT17=
EXTT18=
EXTT19=
EXTT20=
EXTT21=
EXTT22=
EXTT23=
EXTT24=
EXTT25=
EXTT26=
EXTT27=
EXTT28=
EXTT29=
EXTT30=
EXTT31=
EXTT32=
EXTT33=
EXTT34=
EXTT35=
EXTT36=
PLAYORDER=
